<?xml version="1.0" encoding="UTF-8"?>
<svg width="657px" height="678px" viewBox="0 0 657 678" version="1.1" xmlns="http://www.w3.org/2000/svg" xmlns:xlink="http://www.w3.org/1999/xlink">
    <!-- Generator: Sketch 51.3 (57544) - http://www.bohemiancoding.com/sketch -->
    <title>BG-Pattern</title>
    <desc>Created with Sketch.</desc>
    <defs>
        <polygon id="path-1" points="338.899668 0 0 0 0 677.799485 338.899668 677.799485 677.799337 677.799485 677.799337 0"></polygon>
    </defs>
    <g id="Page-1" stroke="none" stroke-width="1" fill="none" fill-rule="evenodd" opacity="0.4">
        <g id="2---Team-Section-Toggled" transform="translate(0.000000, -6086.000000)">
            <g id="BG-Pattern" transform="translate(318.000000, 6425.000000) rotate(-360.000000) translate(-318.000000, -6425.000000) translate(-21.000000, 6086.000000)">
                <g id="Group-3">
                    <mask id="mask-2" fill="white">
                        <use xlink:href="#path-1"></use>
                    </mask>
                    <g id="Clip-2"></g>
                    <path d="M45.1864837,338.899743 C45.1864837,176.945055 176.94565,45.1866324 338.899594,45.1866324 C500.853538,45.1866324 632.612704,176.945055 632.612704,338.899743 L677.799337,338.899743 C677.799337,151.730469 526.068868,0 338.899594,0 C151.73032,0 -0.000148640238,151.730469 -0.000148640238,338.899743 C-0.000148640238,526.069017 151.73032,677.799485 338.899594,677.799485 L338.899594,632.612853 C176.94565,632.612853 45.1864837,500.85443 45.1864837,338.899743" id="Fill-1" fill="#136CFB" mask="url(#mask-2)"></path>
                </g>
                <path d="M191.209119,191.342524 C272.209495,110.22528 404.009109,110.224537 485.010228,191.342524 C566.01209,272.460511 566.011347,404.450285 485.010228,485.567528 L507.365072,507.954626 C600.841672,414.343158 600.841672,262.567638 507.365072,168.95617 C413.887729,75.3439583 262.331618,75.3439583 168.855018,168.95617 C75.3776756,262.567638 75.3776756,414.342414 168.855018,507.954626 L191.209119,485.567528 C110.208001,404.449541 110.208743,272.459767 191.209119,191.342524" id="Fill-4" fill="#136CFB"></path>
                <path d="M427.388481,249.030535 C476.571633,298.367044 476.570893,378.642465 427.388481,427.978974 C378.206069,477.314739 298.180174,477.315483 248.996281,427.978974 L229.883042,447.151808 C289.701291,507.156574 386.684211,507.155831 446.501719,447.151808 C506.319227,387.147786 506.319968,289.862467 446.501719,229.857701 C386.68347,169.852935 289.70055,169.853678 229.883042,229.857701 L248.996281,249.030535 C298.179433,199.69477 378.205328,199.694027 427.388481,249.030535" id="Fill-6" fill="#136CFB"></path>
            </g>
        </g>
    </g>
</svg>