<?xml version="1.0" encoding="UTF-8"?>
<svg width="24px" height="22px" viewBox="0 0 24 22" version="1.1" xmlns="http://www.w3.org/2000/svg" xmlns:xlink="http://www.w3.org/1999/xlink">
    <!-- Generator: Sketch 51.3 (57544) - http://www.bohemiancoding.com/sketch -->
    <title>Contact-LinkedIn-black</title>
    <desc>Created with Sketch.</desc>
    <defs></defs>
    <g id="Page-1" stroke="none" stroke-width="1" fill="none" fill-rule="evenodd">
        <g id="2---Team-Section-Toggled" transform="translate(-839.000000, -6482.000000)" fill="#FFFFFF">
            <g id="Group-11" transform="translate(839.000000, 6343.000000)">
                <g id="Group-10" transform="translate(0.000000, 139.000000)">
                    <path d="M23.814433,22 L18.5511185,22 L18.5511185,14.2661203 C18.5511185,12.2417878 17.7278067,10.8598322 15.9173609,10.8598322 C14.5325729,10.8598322 13.7624684,11.7924057 13.4040197,12.6911699 C13.2696014,13.013767 13.2906043,13.4631491 13.2906043,13.9125312 L13.2906043,22 L8.07629642,22 C8.07629642,22 8.14350554,8.3001857 8.07629642,7.0548761 L13.2906043,7.0548761 L13.2906043,9.400397 C13.5986461,8.37484792 15.2648723,6.91118653 17.9238333,6.91118653 C21.2226811,6.91118653 23.814433,9.06089518 23.814433,13.6899533 L23.814433,22 L23.814433,22 Z M2.80318055,5.18550298 L2.76957599,5.18550298 C1.08934789,5.18550298 0,4.04303003 0,2.59486457 C0,1.11852468 1.12155226,0 2.83538492,0 C4.5478174,0 5.60076035,1.11570724 5.63436491,2.59063841 C5.63436491,4.03880387 4.5478174,5.18550298 2.80318055,5.18550298 L2.80318055,5.18550298 L2.80318055,5.18550298 Z M0.600681547,7.0548761 L5.24231168,7.0548761 L5.24231168,22 L0.600681547,22 L0.600681547,7.0548761 L0.600681547,7.0548761 Z" id="Contact-LinkedIn"></path>
                </g>
            </g>
        </g>
    </g>
</svg>