<?xml version="1.0" encoding="UTF-8"?>
<svg width="26px" height="22px" viewBox="0 0 26 22" version="1.1" xmlns="http://www.w3.org/2000/svg" xmlns:xlink="http://www.w3.org/1999/xlink">
    <!-- Generator: Sketch 51.3 (57544) - http://www.bohemiancoding.com/sketch -->
    <title>Contact-Twitter-black</title>
    <desc>Created with Sketch.</desc>
    <defs></defs>
    <g id="Page-1" stroke="none" stroke-width="1" fill="none" fill-rule="evenodd">
        <g id="2---Team-Section-Toggled" transform="translate(-887.000000, -6482.000000)" fill="#FFFFFF">
            <g id="Group-11" transform="translate(839.000000, 6343.000000)">
                <g id="Group-10" transform="translate(0.000000, 139.000000)">
                    <path d="M73.8556701,2.60440592 C72.9056408,3.04615385 71.8827658,3.34488985 70.8098093,3.47836764 C71.9055301,2.79191044 72.7462908,1.70343084 73.1423893,0.406789455 C72.1164791,1.04239798 70.9828179,1.50480318 69.7717581,1.7526905 C68.8065526,0.673745034 67.4270372,0 65.9003128,0 C62.9728263,0 60.597753,2.48681835 60.597753,5.55362947 C60.597753,5.98902131 60.6432815,6.41170098 60.7343387,6.81849043 C56.3256563,6.58649332 52.4177881,4.3777537 49.7998958,1.01379559 C49.3430926,1.83690863 49.0820621,2.79191044 49.0820621,3.80888407 C49.0820621,5.7347779 50.0184329,7.4350307 51.4419593,8.43134706 C50.5738813,8.40433369 49.7543672,8.15167931 49.0380512,7.73853377 L49.0380512,7.80686168 C49.0380512,10.4986638 50.8667818,12.7439509 53.2949717,13.2524377 C52.8503094,13.3827375 52.3813652,13.4478873 51.8972449,13.4478873 C51.5557807,13.4478873 51.2219045,13.4145179 50.8986518,13.349368 C51.5739921,15.5549296 53.5317202,17.1614301 55.8536769,17.2043337 C54.0386049,18.6948357 51.7500359,19.5830986 49.265694,19.5830986 C48.8377255,19.5830986 48.4143099,19.5576743 48,19.5068256 C50.3477562,21.0799567 53.1371394,22 56.1314011,22 C65.8896895,22 71.2241192,13.5384615 71.2241192,6.19877212 C71.2241192,5.95724088 71.2195664,5.71570964 71.2104607,5.47894547 C72.2469943,4.69555796 73.1469422,3.71830986 73.8556701,2.60440592" id="Contact-Twitter"></path>
                </g>
            </g>
        </g>
    </g>
</svg>