<?xml version="1.0" encoding="UTF-8"?>
<svg width="58px" height="52px" viewBox="0 0 58 52" version="1.1" xmlns="http://www.w3.org/2000/svg" xmlns:xlink="http://www.w3.org/1999/xlink">
    <!-- Generator: Sketch 51.3 (57544) - http://www.bohemiancoding.com/sketch -->
    <title>Icon-CloudUpload</title>
    <desc>Created with Sketch.</desc>
    <defs></defs>
    <g id="Page-1" stroke="none" stroke-width="1" fill="none" fill-rule="evenodd">
        <g id="1---Home" transform="translate(-1179.000000, -1953.000000)" fill="#007AFF" fill-rule="nonzero">
            <g id="Tech'sFriend-4" transform="translate(1138.000000, 1908.000000)">
                <g id="Icon-CloudUpload" transform="translate(41.000000, 45.000000)">
                    <path d="M37.2565417,32.4492093 C36.9472083,32.4492093 36.637875,32.3306977 36.40225,32.0948837 L29,24.6866977 L21.5989583,32.0948837 C21.1265,32.5677209 20.3628333,32.5677209 19.890375,32.0948837 C19.4179167,31.6220465 19.4179167,30.8577674 19.890375,30.3849302 L28.1469167,22.1217674 C28.6000417,21.6682791 29.402375,21.6682791 29.8555,22.1217674 L38.1120417,30.3849302 C38.5845,30.8577674 38.5845,31.6220465 38.1120417,32.0948837 C37.874,32.3306977 37.5646667,32.4492093 37.2565417,32.4492093 Z" id="Shape"></path>
                    <path d="M29,52 C28.333,52 27.7916667,51.4594419 27.7916667,50.7906977 L27.7916667,22.9767442 C27.7916667,22.308 28.333,21.7674419 29,21.7674419 C29.667,21.7674419 30.2083333,22.308 30.2083333,22.9767442 L30.2083333,50.7906977 C30.2083333,51.4594419 29.667,52 29,52 Z" id="Shape"></path>
                    <path d="M46.5208333,41.1162791 L11.4791667,41.1162791 C5.14991667,41.1162791 0,35.9622326 0,29.627907 C0,23.2935814 5.14991667,18.1395349 11.4791667,18.1395349 C11.697875,18.1395349 11.915375,18.1455814 12.1340833,18.1588837 C12.10025,17.7392558 12.0833333,17.3305116 12.0833333,16.9302326 C12.0833333,7.5944186 19.6716667,0 29,0 C38.3283333,0 45.9166667,7.5944186 45.9166667,16.9302326 C45.9166667,17.3305116 45.89975,17.7392558 45.8659167,18.1588837 C46.084625,18.1455814 46.302125,18.1395349 46.5208333,18.1395349 C52.8500833,18.1395349 58,23.2935814 58,29.627907 C58,35.9622326 52.8500833,41.1162791 46.5208333,41.1162791 Z M11.4791667,20.5581395 C6.4815,20.5581395 2.41666667,24.6262326 2.41666667,29.627907 C2.41666667,34.6295814 6.4815,38.6976744 11.4791667,38.6976744 L46.5208333,38.6976744 C51.5185,38.6976744 55.5833333,34.6295814 55.5833333,29.627907 C55.5833333,24.6262326 51.5185,20.5581395 46.5208333,20.5581395 C45.9130417,20.5581395 45.3040417,20.619814 44.7131667,20.7383256 C44.3240833,20.8169302 43.9192917,20.7020465 43.6317083,20.4226977 C43.3453333,20.1457674 43.213625,19.7454884 43.2800833,19.3524651 C43.4275,18.4769302 43.5,17.6848372 43.5,16.9302326 C43.5,8.92827907 36.9955417,2.41860465 29,2.41860465 C21.0044583,2.41860465 14.5,8.92827907 14.5,16.9302326 C14.5,17.6848372 14.5725,18.4769302 14.7199167,19.3536744 C14.786375,19.7466977 14.6546667,20.1469767 14.3682917,20.423907 C14.0819167,20.7020465 13.677125,20.8181395 13.2868333,20.7395349 C12.6959583,20.619814 12.0869583,20.5581395 11.4791667,20.5581395 Z" id="Shape"></path>
                </g>
            </g>
        </g>
    </g>
</svg>