<?xml version="1.0" encoding="UTF-8"?>
<svg width="68px" height="84px" viewBox="0 0 68 84" version="1.1" xmlns="http://www.w3.org/2000/svg" xmlns:xlink="http://www.w3.org/1999/xlink">
    <!-- Generator: Sketch 51.3 (57544) - http://www.bohemiancoding.com/sketch -->
    <title>Icon-HandsFree</title>
    <desc>Created with Sketch.</desc>
    <defs></defs>
    <g id="Page-1" stroke="none" stroke-width="1" fill="none" fill-rule="evenodd">
        <g id="1---Home" transform="translate(-196.000000, -1936.000000)" fill="#007AFF" fill-rule="nonzero">
            <g id="Tech'sFriend-1" transform="translate(162.000000, 1908.000000)">
                <g id="Icon-HandsFree" transform="translate(34.000000, 28.000000)">
                    <g id="svg_I-phone" transform="translate(39.368421, 41.106383)">
                        <path d="M27.7368421,8.04255319 L1.78947368,8.04255319 C1.29557895,8.04255319 0.894736842,7.64221277 0.894736842,7.14893617 C0.894736842,6.65565957 1.29557895,6.25531915 1.78947368,6.25531915 L27.7368421,6.25531915 C28.2307368,6.25531915 28.6315789,6.65565957 28.6315789,7.14893617 C28.6315789,7.64221277 28.2307368,8.04255319 27.7368421,8.04255319 Z" id="Shape"></path>
                        <path d="M27.7368421,33.9574468 L1.78947368,33.9574468 C1.29557895,33.9574468 0.894736842,33.5571064 0.894736842,33.0638298 C0.894736842,32.5705532 1.29557895,32.1702128 1.78947368,32.1702128 L27.7368421,32.1702128 C28.2307368,32.1702128 28.6315789,32.5705532 28.6315789,33.0638298 C28.6315789,33.5571064 28.2307368,33.9574468 27.7368421,33.9574468 Z" id="Shape"></path>
                        <path d="M24.1578947,42.893617 L4.47368421,42.893617 C2.00689474,42.893617 0,40.889234 0,38.4255319 L0,4.46808511 C0,2.00438298 2.00689474,0 4.47368421,0 L24.1578947,0 C26.6246842,0 28.6315789,2.00438298 28.6315789,4.46808511 L28.6315789,38.4255319 C28.6315789,40.889234 26.6246842,42.893617 24.1578947,42.893617 Z M4.47368421,1.78723404 C2.99378947,1.78723404 1.78947368,2.99004255 1.78947368,4.46808511 L1.78947368,38.4255319 C1.78947368,39.9035745 2.99378947,41.106383 4.47368421,41.106383 L24.1578947,41.106383 C25.6377895,41.106383 26.8421053,39.9035745 26.8421053,38.4255319 L26.8421053,4.46808511 C26.8421053,2.99004255 25.6377895,1.78723404 24.1578947,1.78723404 L4.47368421,1.78723404 Z" id="Shape"></path>
                        <ellipse id="Oval" cx="14.3157895" cy="37.5319149" rx="1.78947368" ry="1.78723404"></ellipse>
                    </g>
                    <g id="svg_headphone">
                        <path d="M36.4542632,31.2765957 L33.1052632,31.2765957 C31.1314737,31.2765957 29.5263158,29.6734468 29.5263158,27.7021277 L29.5263158,23.2340426 C29.5263158,21.2627234 31.1314737,19.6595745 33.1052632,19.6595745 L37.3364737,19.6595745 C37.1691579,15.0797872 35.2705263,10.8288511 31.9492632,7.62702128 C28.4687368,4.27238298 23.8760526,2.50659574 19.0391053,2.69246809 C10.0165789,3.01238298 2.61084211,10.518766 2.05342105,19.6595745 L6.26315789,19.6595745 C8.23694737,19.6595745 9.84210526,21.2627234 9.84210526,23.2340426 L9.84210526,27.7021277 C9.84210526,29.6734468 8.23694737,31.2765957 6.26315789,31.2765957 L2.91415789,31.2765957 C1.43426316,31.2765957 0.229947368,30.0737872 0.229947368,28.5957447 L0.229947368,20.7676596 C0.229947368,20.7095745 0.229947368,20.6488085 0.230842105,20.5907234 C0.230842105,20.5782128 0.229947368,20.5665957 0.229947368,20.5531915 C0.229947368,20.5344255 0.229947368,20.5138723 0.231736842,20.4951064 C0.374894737,10.0308511 8.72815789,1.26982979 18.9755789,0.907021277 C24.3144737,0.707744681 29.359,2.64689362 33.1920526,6.34110638 C37.0268947,10.0371064 39.1384737,15.0029362 39.1384737,20.3235319 L39.1384737,28.5957447 C39.1384737,30.0737872 37.9341579,31.2765957 36.4542632,31.2765957 Z M33.1052632,21.4468085 C32.1183684,21.4468085 31.3157895,22.248383 31.3157895,23.2340426 L31.3157895,27.7021277 C31.3157895,28.6877872 32.1183684,29.4893617 33.1052632,29.4893617 L36.4542632,29.4893617 C36.9472632,29.4893617 37.349,29.0890213 37.349,28.5957447 L37.349,21.4468085 L33.1052632,21.4468085 Z M2.01942105,21.4468085 L2.01942105,28.5957447 C2.01942105,29.0890213 2.42115789,29.4893617 2.91415789,29.4893617 L6.26315789,29.4893617 C7.25005263,29.4893617 8.05263158,28.6877872 8.05263158,27.7021277 L8.05263158,23.2340426 C8.05263158,22.248383 7.25005263,21.4468085 6.26315789,21.4468085 L2.01942105,21.4468085 Z" id="Shape"></path>
                        <path d="M20.5789474,40.212766 C20.0850526,40.212766 19.6842105,39.8133191 19.6842105,39.3191489 C19.6842105,38.8249787 20.0850526,38.4255319 20.5789474,38.4255319 C30.3083158,38.4255319 34.8768421,30.0478723 34.9224737,29.9629787 C35.1542105,29.5277872 35.6964211,29.3606809 36.1330526,29.5939149 C36.5696842,29.8253617 36.7352105,30.366 36.5034737,30.8029787 C36.2985789,31.1863404 31.3721579,40.212766 20.5789474,40.212766 Z" id="Shape"></path>
                        <path d="M20.5789474,42 C19.0990526,42 17.8947368,40.7971915 17.8947368,39.3191489 C17.8947368,37.8411064 19.0990526,36.6382979 20.5789474,36.6382979 C22.0588421,36.6382979 23.2631579,37.8411064 23.2631579,39.3191489 C23.2631579,40.7971915 22.0588421,42 20.5789474,42 Z M20.5789474,38.4255319 C20.0859474,38.4255319 19.6842105,38.8258723 19.6842105,39.3191489 C19.6842105,39.8124255 20.0859474,40.212766 20.5789474,40.212766 C21.0719474,40.212766 21.4736842,39.8124255 21.4736842,39.3191489 C21.4736842,38.8258723 21.0719474,38.4255319 20.5789474,38.4255319 Z" id="Shape"></path>
                    </g>
                </g>
            </g>
        </g>
    </g>
</svg>