<?xml version="1.0" encoding="UTF-8"?>
<svg width="50px" height="50px" viewBox="0 0 50 50" version="1.1" xmlns="http://www.w3.org/2000/svg" xmlns:xlink="http://www.w3.org/1999/xlink">
    <!-- Generator: Sketch 51.3 (57544) - http://www.bohemiancoding.com/sketch -->
    <title>svg_search-53</title>
    <desc>Created with Sketch.</desc>
    <defs></defs>
    <g id="Page-1" stroke="none" stroke-width="1" fill="none" fill-rule="evenodd">
        <g id="1---Home" transform="translate(-532.000000, -1953.000000)" fill="#007AFF" fill-rule="nonzero">
            <g id="Tech'sFriend-2" transform="translate(487.000000, 1908.000000)">
                <g id="svg_search-53" transform="translate(45.000000, 45.000000)">
                    <path d="M17.8571429,35.7142857 C7.97619048,35.7142857 0,27.7380952 0,17.8571429 C0,7.97619048 7.97619048,0 17.8571429,0 C27.7380952,0 35.7142857,7.97619048 35.7142857,17.8571429 C35.7142857,27.7380952 27.7380952,35.7142857 17.8571429,35.7142857 Z M17.8571429,2.38095238 C9.28571429,2.38095238 2.38095238,9.28571429 2.38095238,17.8571429 C2.38095238,26.4285714 9.28571429,33.3333333 17.8571429,33.3333333 C26.4285714,33.3333333 33.3333333,26.4285714 33.3333333,17.8571429 C33.3333333,9.28571429 26.4285714,2.38095238 17.8571429,2.38095238 Z" id="Shape"></path>
                    <path d="M45.4761905,49.5238095 C44.8809524,49.5238095 44.2857143,49.2857143 43.8095238,48.8095238 L27.5,32.6190476 C27.0238095,32.1428571 27.0238095,31.4285714 27.5,30.952381 C27.9761905,30.4761905 28.6904762,30.4761905 29.1666667,30.952381 L45.3571429,47.1428571 L47.0238095,45.4761905 L30.952381,29.2857143 C30.4761905,28.8095238 30.4761905,28.0952381 30.952381,27.6190476 C31.4285714,27.1428571 32.1428571,27.1428571 32.6190476,27.6190476 L48.8095238,43.8095238 C49.7619048,44.7619048 49.7619048,46.1904762 48.8095238,47.1428571 L47.1428571,48.8095238 C46.6666667,49.2857143 46.0714286,49.5238095 45.4761905,49.5238095 Z" id="Shape"></path>
                </g>
            </g>
        </g>
    </g>
</svg>