<?xml version="1.0" encoding="UTF-8"?>
<svg width="43px" height="56px" viewBox="0 0 43 56" version="1.1" xmlns="http://www.w3.org/2000/svg" xmlns:xlink="http://www.w3.org/1999/xlink">
    <!-- Generator: Sketch 51.3 (57544) - http://www.bohemiancoding.com/sketch -->
    <title>Icon-Smart-Workflow</title>
    <desc>Created with Sketch.</desc>
    <defs></defs>
    <g id="Page-1" stroke="none" stroke-width="1" fill="none" fill-rule="evenodd">
        <g id="1---Home" transform="translate(-861.000000, -1950.000000)" fill="#007AFF" fill-rule="nonzero">
            <g id="Tech'sFriend-3" transform="translate(813.000000, 1908.000000)">
                <g id="Icon-Smart-Workflow" transform="translate(48.000000, 42.000000)">
                    <path d="M5.94594595,14.2978723 C2.66735135,14.2978723 0,11.6253617 0,8.34042553 C0,5.05548936 2.66735135,2.38297872 5.94594595,2.38297872 C9.22454054,2.38297872 11.8918919,5.05548936 11.8918919,8.34042553 C11.8918919,11.6253617 9.22454054,14.2978723 5.94594595,14.2978723 Z M5.94594595,4.76595745 C3.97902703,4.76595745 2.37837838,6.36970213 2.37837838,8.34042553 C2.37837838,10.3111489 3.97902703,11.9148936 5.94594595,11.9148936 C7.91286486,11.9148936 9.51351351,10.3111489 9.51351351,8.34042553 C9.51351351,6.36970213 7.91286486,4.76595745 5.94594595,4.76595745 Z" id="Shape"></path>
                    <path d="M26.1621622,48.8510638 L19.9736216,48.8510638 C11.5827027,48.8510638 4.75675676,42.0119149 4.75675676,33.604766 L4.75675676,14.2978723 C4.75675676,13.6389787 5.28832432,13.106383 5.94594595,13.106383 C6.60356757,13.106383 7.13513514,13.6389787 7.13513514,14.2978723 L7.13513514,33.604766 C7.13513514,40.6977021 12.8943784,46.4680851 19.9736216,46.4680851 L26.1621622,46.4680851 C26.8197838,46.4680851 27.3513514,47.0006809 27.3513514,47.6595745 C27.3513514,48.3184681 26.8197838,48.8510638 26.1621622,48.8510638 Z" id="Shape"></path>
                    <path d="M19.0282162,56 C18.6904865,56 18.3563243,55.8570213 18.1196757,55.5794043 C17.6951351,55.0765957 17.7557838,54.324766 18.2564324,53.8994043 L25.5972973,47.6595745 L18.2564324,41.4197447 C17.7557838,40.994383 17.6939459,40.2425532 18.1196757,39.7397447 C18.5442162,39.2405106 19.2934054,39.1773617 19.7964324,39.6027234 L28.2051892,46.7516596 C28.4715676,46.9780426 28.624973,47.3104681 28.624973,47.660766 C28.624973,48.0110638 28.4715676,48.3422979 28.2051892,48.5698723 L19.7964324,55.7188085 C19.5728649,55.9070638 19.2993514,56 19.0282162,56 Z" id="Shape"></path>
                    <path d="M36.9492973,53.6170213 C33.6707027,53.6170213 31.0033514,50.9445106 31.0033514,47.6595745 C31.0033514,44.3746383 33.6707027,41.7021277 36.9492973,41.7021277 C40.2278919,41.7021277 42.8952432,44.3746383 42.8952432,47.6595745 C42.8952432,50.9445106 40.2278919,53.6170213 36.9492973,53.6170213 Z M36.9492973,44.0851064 C34.9823784,44.0851064 33.3817297,45.6888511 33.3817297,47.6595745 C33.3817297,49.6302979 34.9823784,51.2340426 36.9492973,51.2340426 C38.9162162,51.2340426 40.5168649,49.6302979 40.5168649,47.6595745 C40.5168649,45.6888511 38.9174054,44.0851064 36.9492973,44.0851064 Z" id="Shape"></path>
                    <path d="M38.1384865,41.7021277 L35.7601081,41.7021277 L35.7601081,36.9361702 L38.1384865,36.9361702 L38.1384865,41.7021277 Z M38.1384865,32.1702128 L35.7601081,32.1702128 L35.7601081,27.4042553 L38.1384865,27.4042553 L38.1384865,32.1702128 Z M38.1384865,22.6382979 L35.7601081,22.6382979 L35.7601081,22.395234 C35.7601081,21.0035745 35.5389189,19.6345532 35.1048649,18.3274894 L37.3595676,17.5732766 C37.8768649,19.1245957 38.1372973,20.7462128 38.1372973,22.395234 L38.1372973,22.6382979 L38.1384865,22.6382979 Z M33.0606486,14.5028085 C32.1628108,13.3470638 31.0865946,12.3617021 29.8629189,11.5729362 L31.1496216,9.56885106 C32.6004324,10.5029787 33.8740541,11.6706383 34.9383784,13.0384681 L33.0606486,14.5028085 Z M25.8767568,9.87387234 C24.9147027,9.64748936 23.9205405,9.53191489 22.9216216,9.53191489 L21.4220541,9.53191489 L21.4220541,7.14893617 L22.9216216,7.14893617 C24.1036757,7.14893617 25.280973,7.28476596 26.4214054,7.55404255 L25.8767568,9.87387234 Z" id="Shape"></path>
                    <path d="M23.8682162,16.6808511 C23.5958919,16.6808511 23.3223784,16.5879149 23.0988108,16.3984681 L14.6900541,9.24953191 C14.4236757,9.02195745 14.2702703,8.6907234 14.2702703,8.34042553 C14.2702703,7.99012766 14.4236757,7.65889362 14.6900541,7.43131915 L23.0988108,0.282382979 C23.6006486,-0.140595745 24.3498378,-0.0810212766 24.7755676,0.419404255 C25.2001081,0.922212766 25.1394595,1.67404255 24.6388108,2.09940426 L17.2979459,8.34042553 L24.6388108,14.5802553 C25.1394595,15.005617 25.2012973,15.7574468 24.7755676,16.2602553 C24.5401081,16.5378723 24.2047568,16.6808511 23.8682162,16.6808511 Z" id="Shape"></path>
                </g>
            </g>
        </g>
    </g>
</svg>