<?xml version="1.0" encoding="UTF-8"?>
<svg width="19px" height="18px" viewBox="0 0 19 18" version="1.1" xmlns="http://www.w3.org/2000/svg" xmlns:xlink="http://www.w3.org/1999/xlink">
    <!-- Generator: Sketch 51.3 (57544) - http://www.bohemiancoding.com/sketch -->
    <title>LinkedIn-black</title>
    <desc>Created with Sketch.</desc>
    <defs></defs>
    <g id="Page-1" stroke="none" stroke-width="1" fill="none" fill-rule="evenodd">
        <g id="1---Home" transform="translate(-317.000000, -5514.000000)" fill="#136CFB">
            <path d="M336,5532 L331.800741,5532 L331.800741,5525.67228 C331.800741,5524.01601 331.143873,5522.88532 329.699436,5522.88532 C328.594603,5522.88532 327.980186,5523.64833 327.694203,5524.38368 C327.586959,5524.64763 327.603716,5525.0153 327.603716,5525.38298 L327.603716,5532 L323.443556,5532 C323.443556,5532 323.497178,5520.79106 323.443556,5519.77217 L327.603716,5519.77217 L327.603716,5521.69123 C327.849483,5520.85215 329.178857,5519.65461 331.30027,5519.65461 C333.932208,5519.65461 336,5521.41346 336,5525.20087 L336,5532 L336,5532 Z M319.236477,5518.24268 L319.209666,5518.24268 C317.86912,5518.24268 317,5517.30793 317,5516.12307 C317,5514.91516 317.894814,5514 319.262171,5514 C320.62841,5514 321.468485,5514.91285 321.495296,5516.11961 C321.495296,5517.30448 320.62841,5518.24268 319.236477,5518.24268 L319.236477,5518.24268 L319.236477,5518.24268 Z M317.479245,5519.77217 L321.182502,5519.77217 L321.182502,5532 L317.479245,5532 L317.479245,5519.77217 L317.479245,5519.77217 Z" id="LinkedIn"></path>
        </g>
    </g>
</svg>