<?xml version="1.0" encoding="UTF-8"?>
<svg width="109px" height="42px" viewBox="0 0 109 42" version="1.1" xmlns="http://www.w3.org/2000/svg" xmlns:xlink="http://www.w3.org/1999/xlink">
    <!-- Generator: Sketch 51.3 (57544) - http://www.bohemiancoding.com/sketch -->
    <title>CYTK Logomark Copy</title>
    <desc>Created with Sketch.</desc>
    <defs>
        <polygon id="path-1" points="12.76 14.7509526 12.76 0.722952632 0.249960333 0.722952632 0.249960333 14.7509526 12.76 14.7509526"></polygon>
        <polygon id="path-3" points="0.000170499995 0 36.868238 0 36.868238 41.9998895 0.000170499995 41.9998895"></polygon>
    </defs>
    <g id="Page-1" stroke="none" stroke-width="1" fill="none" fill-rule="evenodd">
        <g id="3---Home---Scrolled" transform="translate(-80.000000, -19.000000)">
            <g id="Group-23">
                <g id="CYTK-Logomark-Copy" transform="translate(80.000000, 19.000000)">
                    <path d="M59.748315,13.7454947 C61.7477117,13.7454947 63.478855,14.3666526 64.982665,15.5293895 L63.2935783,17.6139158 C62.2830817,16.8313895 61.211205,16.3108105 59.8108317,16.3108105 C57.1305717,16.3108105 55.3789683,18.1344947 55.3789683,20.9197579 C55.3789683,23.8056 57.0896517,25.6900737 59.8108317,25.6900737 C61.2532617,25.6900737 62.4069783,25.1484947 63.3754183,24.2267053 L65.2304583,26.1509684 C63.6845917,27.5535474 61.8920683,28.2542842 59.6448783,28.2542842 C55.2346117,28.2542842 52.225855,25.1882842 52.225855,20.9197579 C52.225855,16.7717053 55.3380483,13.7454947 59.748315,13.7454947" id="Fill-1" fill="#3A3A3A"></path>
                    <polygon id="Fill-3" fill="#3A3A3A" points="71.9224697 22.3830158 66.5221663 13.9863316 70.1288097 13.9863316 73.4887963 19.3965947 73.5297163 19.3965947 76.9090263 13.9863316 80.4747497 13.9863316 75.075583 22.3830158 75.075583 28.0143316 71.9224697 28.0143316"></polygon>
                    <g id="Group-7" transform="translate(96.360000, 13.263158)">
                        <mask id="mask-2" fill="white">
                            <use xlink:href="#path-1"></use>
                        </mask>
                        <g id="Clip-6"></g>
                        <polygon id="Fill-5" fill="#3A3A3A" mask="url(#mask-2)" points="0.249960333 0.722952632 3.38261367 0.722952632 3.38261367 7.27605789 8.864757 0.722952632 12.3065837 0.722952632 7.79288033 5.95305789 12.7601137 14.7509526 9.23531033 14.7509526 5.79348367 8.27742632 3.38261367 11.0836895 3.38261367 14.7509526 0.249960333 14.7509526"></polygon>
                    </g>
                    <polygon id="Fill-8" fill="#3A3A3A" points="83.4223537 13.9861105 81.6946203 16.6707947 86.456117 16.6707947 86.456117 28.0141105 89.5683103 28.0141105 89.5683103 16.6707947 94.3491303 16.6707947 94.3491303 13.9861105"></polygon>
                    <g id="Group-12">
                        <mask id="mask-4" fill="white">
                            <use xlink:href="#path-3"></use>
                        </mask>
                        <g id="Clip-11"></g>
                        <path d="M8.36177467,33.8695737 C1.06437467,26.7737842 1.06437467,15.2271 8.36177467,8.13020526 C15.6591747,1.03441579 27.5339313,1.03441579 34.8313313,8.13020526 L36.868238,6.15067895 C28.4341713,-2.05037368 14.7589347,-2.05037368 6.324868,6.15067895 C-2.108062,14.3517316 -2.108062,27.6480474 6.324868,35.8491 C14.7589347,44.0501526 28.4341713,44.0501526 36.868238,35.8491 L34.8313313,33.8695737 C27.5339313,40.9653632 15.6591747,40.9653632 8.36177467,33.8695737" id="Fill-10" fill="#3A3A3A" mask="url(#mask-4)"></path>
                    </g>
                    <path d="M8.350749,20.9997789 C8.350749,13.8984632 14.2932423,8.12014737 21.5963257,8.12014737 C28.9005457,8.12014737 34.843039,13.8984632 34.843039,20.9997789 L36.858349,20.9997789 C36.858349,12.8042526 30.0258457,6.16051579 21.5963257,6.16051579 C13.1679423,6.16051579 6.335439,12.8042526 6.335439,20.9997789 C6.335439,29.1964105 13.1679423,35.8401474 21.5963257,35.8401474 L21.5963257,33.8794105 C14.2932423,33.8794105 8.350749,28.1022 8.350749,20.9997789" id="Fill-13" fill="#3A3A3A"></path>
                    <path d="M21.5966667,13.1599263 C26.04217,13.1599263 29.6590433,16.6768737 29.6590433,20.9995579 C29.6590433,25.3233474 26.04217,28.8402947 21.5966667,28.8402947 L21.5966667,30.5202947 C27.00379,30.5202947 31.3867767,26.2584 31.3867767,20.9995579 C31.3867767,15.7418211 27.00379,11.4799263 21.5966667,11.4799263 C16.1895433,11.4799263 11.8065567,15.7418211 11.8065567,20.9995579 L13.53429,20.9995579 C13.53429,16.6768737 17.1511633,13.1599263 21.5966667,13.1599263" id="Fill-15" fill="#3A3A3A"></path>
                </g>
            </g>
        </g>
    </g>
</svg>